<svg width="48" height="48" viewBox="0 0 48 48" fill="none" xmlns="http://www.w3.org/2000/svg">
<g clip-path="url(#clip0_116_5918)">
<path d="M24 0C37.2552 0 48 10.7448 48 24C48 37.2552 37.2552 48 24 48C10.7448 48 0 37.2552 0 24C0 10.7448 10.7448 0 24 0ZM34.6608 14.4C33.7464 14.4168 32.3424 14.8968 25.5912 17.6688C20.8524 19.6471 16.1266 21.6567 11.4144 23.6976C10.2624 24.1504 9.66 24.5928 9.6072 25.0248C9.5016 25.8552 10.7112 26.112 12.2328 26.6016C13.4736 27 15.144 27.4656 16.0128 27.4848C16.8 27.5008 17.6784 27.1808 18.648 26.5248C25.2704 22.1088 28.6888 19.8776 28.9032 19.8312C29.0544 19.7976 29.2632 19.7544 29.4072 19.8792C29.5488 20.004 29.5344 20.2392 29.5176 20.304C29.3976 20.8104 23.1792 26.3952 22.8216 26.7624L22.6488 26.9352C21.3288 28.2384 19.9968 29.0904 22.296 30.5856C24.3744 31.9368 25.584 32.7984 27.72 34.1856C29.088 35.0688 30.1608 36.1176 31.572 35.9904C32.2224 35.9304 32.892 35.328 33.2352 33.528C34.0392 29.28 35.6232 20.0688 35.988 16.272C36.0109 15.9571 35.9973 15.6406 35.9472 15.3288C35.9176 15.077 35.7942 14.8457 35.6016 14.6808C35.3112 14.4456 34.86 14.3976 34.6608 14.4Z" fill="white"/>
</g>
<defs>
<clipPath id="clip0_116_5918">
<rect width="48" height="48" fill="white"/>
</clipPath>
</defs>
</svg>
