<svg width="48" height="48" viewBox="0 0 48 48" fill="none" xmlns="http://www.w3.org/2000/svg">
<g clip-path="url(#clip0_116_5916)">
<path d="M24.036 0C10.7616 0 0 10.7352 0 23.976C0 34.1328 6.3312 42.8088 15.2736 46.296C15.0624 44.4 14.8752 41.4912 15.3552 39.42C15.7944 37.548 18.1752 27.5064 18.1752 27.5064C18.1752 27.5064 17.4552 26.0664 17.4552 23.9448C17.4552 20.6184 19.3944 18.1224 21.8016 18.1224C23.8536 18.1224 24.8448 19.6584 24.8448 21.4968C24.8448 23.556 23.5368 26.6328 22.8552 29.4816C22.284 31.8672 24.06 33.8112 26.4144 33.8112C30.6816 33.8112 33.9696 29.3232 33.9696 22.8384C33.9696 17.1168 29.8344 13.0992 23.928 13.0992C17.0928 13.0992 13.0848 18.2232 13.0848 23.4984C13.0848 25.5624 13.8744 27.7848 14.8656 28.98C15.0648 29.22 15.0912 29.4312 15.036 29.6712C14.856 30.42 14.4504 32.0688 14.3664 32.3952C14.2608 32.8464 14.0232 32.9376 13.5624 32.7264C10.5648 31.3464 8.6856 26.9712 8.6856 23.4336C8.6856 15.8832 14.196 8.9304 24.564 8.9304C32.9016 8.9304 39.384 14.8632 39.384 22.776C39.384 31.0464 34.1568 37.6992 26.8872 37.6992C24.4536 37.6992 22.1688 36.4416 21.3576 34.9416L19.8576 40.6392C19.3176 42.7272 17.8416 45.3432 16.8528 46.9296C19.1583 47.6422 21.5581 48.0031 23.9712 48C37.2192 48 48 37.272 48 24.024C48 10.7832 37.2168 0.0552 23.9712 0.0552L24.036 0Z" fill="white"/>
</g>
<defs>
<clipPath id="clip0_116_5916">
<rect width="48" height="48" fill="white"/>
</clipPath>
</defs>
</svg>
