<svg width="35" height="30" viewBox="0 0 35 30" fill="none" xmlns="http://www.w3.org/2000/svg">
<path d="M26.583 8.07692V8.32692H26.833H29.8826C30.6363 8.32684 31.3797 8.49979 32.0541 8.83205C32.7285 9.16429 33.3154 9.6467 33.7689 10.2411C34.2224 10.8355 34.53 11.5256 34.6678 12.2572C34.8056 12.9888 34.7698 13.742 34.5632 14.4576L31.544 24.9113C31.544 24.9113 31.544 24.9114 31.544 24.9114C31.141 26.305 30.2898 27.5314 29.1187 28.4046C27.9475 29.2779 26.5202 29.7503 25.0528 29.75H25.0528H9.94725H9.94722C8.47953 29.7502 7.05203 29.2774 5.88081 28.4037C4.70963 27.53 3.85861 26.3031 3.45598 24.9091L3.2306 24.9742L3.45598 24.9091L0.436761 14.4576C0.436756 14.4576 0.436751 14.4576 0.436746 14.4575C0.230204 13.7419 0.19443 12.9887 0.332211 12.2572C0.469997 11.5256 0.777628 10.8355 1.23109 10.2411C1.68456 9.6467 2.27152 9.16429 2.94592 8.83205C3.62034 8.49979 4.36367 8.32684 5.11738 8.32692H5.11741H8.16697H8.41697V8.07692V4.61538C8.41697 3.45851 8.8816 2.34845 9.70956 1.52956C10.5376 0.710585 11.6613 0.25 12.8335 0.25H22.1665C23.3387 0.25 24.4624 0.710585 25.2904 1.52956C26.1184 2.34845 26.583 3.45851 26.583 4.61538V8.07692ZM11.4169 8.07692V8.32692H11.6669H23.3331H23.5831V8.07692V4.61538C23.5831 4.24217 23.4332 3.8848 23.1672 3.62174C22.9014 3.35878 22.5413 3.21154 22.1665 3.21154H12.8335C12.4587 3.21154 12.0986 3.35878 11.8328 3.62174C11.5668 3.8848 11.4169 4.24217 11.4169 4.61538V8.07692ZM9.9472 26.7885H9.94725H25.0528C25.8665 26.7885 26.6585 26.5264 27.3089 26.0415C27.9593 25.5566 28.4329 24.875 28.6574 24.0995L28.6575 24.0994L31.6767 13.6455L31.6768 13.6454C31.7562 13.37 31.7699 13.08 31.7168 12.7984C31.6638 12.5168 31.5454 12.2514 31.3713 12.0231C31.1971 11.7948 30.972 11.6097 30.7138 11.4823C30.4555 11.355 30.1711 11.2886 29.8828 11.2885H29.8826H5.11741H5.11725C4.82893 11.2886 4.54448 11.355 4.28623 11.4823C4.02798 11.6097 3.80286 11.7948 3.62873 12.0231C3.4546 12.2514 3.33625 12.5168 3.28319 12.7984C3.23013 13.08 3.24384 13.37 3.32324 13.6454L3.32328 13.6455L6.34251 24.0971C6.56661 24.873 7.04 25.5551 7.69047 26.0405C8.34089 26.5259 9.13309 26.7883 9.9472 26.7885Z" fill="#383838" stroke="#FBFBFB" stroke-width="0.5"/>
</svg>
