<svg width="45" height="46" viewBox="0 0 45 46" fill="none" xmlns="http://www.w3.org/2000/svg">
<path d="M37.7725 16.9888L38.2757 15.776C39.1604 13.6305 40.7805 11.9103 42.8165 10.9548L44.369 10.2284C44.5573 10.1376 44.7169 9.99218 44.8287 9.80931C44.9406 9.62645 45 9.41382 45 9.19663C45 8.97945 44.9406 8.76682 44.8287 8.58395C44.7169 8.40108 44.5573 8.25565 44.369 8.16489L42.9024 7.48134C40.8153 6.49862 39.1674 4.71476 38.2982 2.49724L37.7807 1.18801C37.7047 0.9852 37.5721 0.811086 37.4003 0.688363C37.2284 0.56564 37.0253 0.5 36.8173 0.5C36.6093 0.5 36.4062 0.56564 36.2343 0.688363C36.0625 0.811086 35.9299 0.9852 35.8539 1.18801L35.3364 2.4951C34.4681 4.71304 32.821 6.49766 30.7342 7.48134L29.2656 8.16703C29.0778 8.25805 28.9188 8.40347 28.8074 8.5861C28.696 8.76873 28.6368 8.98095 28.6368 9.1977C28.6368 9.41445 28.696 9.62668 28.8074 9.80931C28.9188 9.99194 29.0778 10.1374 29.2656 10.2284L30.8201 10.9526C32.8557 11.9091 34.4751 13.6301 35.3589 15.776L35.8621 16.9888C36.2303 17.8759 37.4023 17.8759 37.7725 16.9888ZM8.18143 11.2162C7.86389 11.2162 7.55071 11.2936 7.26669 11.4424C6.98267 11.5912 6.73562 11.8072 6.5451 12.0733L0.408841 20.6444C0.124578 21.0416 -0.0192033 21.5299 0.00206144 22.0259C0.0233261 22.5218 0.208317 22.9947 0.52543 23.3636L18.9342 44.7914C19.126 45.0144 19.3604 45.1928 19.6222 45.3148C19.884 45.4369 20.1674 45.5 20.4539 45.5C20.7405 45.5 21.0239 45.4369 21.2857 45.3148C21.5475 45.1928 21.7819 45.0144 21.9737 44.7914L40.3825 23.3636L37.343 20.4966L20.4539 40.1544L4.6899 21.8058L9.20414 15.5018H26.5902V11.2162H8.18143Z" fill="#383838"/>
</svg>
