<svg width="30" height="30" viewBox="0 0 30 30" fill="none" xmlns="http://www.w3.org/2000/svg">
<path d="M15 18C23.28 18 30 21.14 30 25V30H0V25C0 21.14 6.72 18 15 18ZM28 25C28 22.24 22.18 20 15 20C7.82 20 2 22.24 2 25V28H28V25ZM15 0C16.8565 0 18.637 0.737498 19.9497 2.05025C21.2625 3.36301 22 5.14348 22 7C22 8.85652 21.2625 10.637 19.9497 11.9497C18.637 13.2625 16.8565 14 15 14C13.1435 14 11.363 13.2625 10.0503 11.9497C8.7375 10.637 8 8.85652 8 7C8 5.14348 8.7375 3.36301 10.0503 2.05025C11.363 0.737498 13.1435 0 15 0ZM15 2C13.6739 2 12.4021 2.52678 11.4645 3.46447C10.5268 4.40215 10 5.67392 10 7C10 8.32608 10.5268 9.59785 11.4645 10.5355C12.4021 11.4732 13.6739 12 15 12C16.3261 12 17.5979 11.4732 18.5355 10.5355C19.4732 9.59785 20 8.32608 20 7C20 5.67392 19.4732 4.40215 18.5355 3.46447C17.5979 2.52678 16.3261 2 15 2Z" fill="#383838"/>
</svg>
