<svg width="1920" height="204" viewBox="0 0 1920 204" fill="none" xmlns="http://www.w3.org/2000/svg">
<path d="M-172.476 200V21.0449H-148.794V178.882H-60.6592V200H-172.476ZM85.0928 21.0449H108.774V124.438C108.774 142.424 106.74 156.706 102.671 167.285C98.6019 177.865 91.237 186.491 80.5762 193.164C69.9967 199.756 56.0807 203.052 38.8281 203.052C22.0638 203.052 8.35124 200.163 -2.30957 194.385C-12.9704 188.607 -20.5794 180.265 -25.1367 169.36C-29.694 158.374 -31.9727 143.4 -31.9727 124.438V21.0449H-8.29102V124.316C-8.29102 139.86 -6.86686 151.335 -4.01855 158.74C-1.08887 166.064 3.87533 171.72 10.874 175.708C17.9541 179.696 26.5804 181.689 36.7529 181.689C54.1683 181.689 66.5788 177.743 73.9844 169.849C81.39 161.955 85.0928 146.777 85.0928 124.316V21.0449ZM140.269 142.505L162.607 140.552C163.665 149.504 166.107 156.868 169.932 162.646C173.838 168.343 179.86 172.982 187.998 176.562C196.136 180.062 205.291 181.812 215.464 181.812C224.497 181.812 232.472 180.469 239.39 177.783C246.307 175.098 251.434 171.436 254.771 166.797C258.188 162.077 259.897 156.95 259.897 151.416C259.897 145.801 258.27 140.918 255.015 136.768C251.759 132.536 246.388 128.996 238.901 126.147C234.1 124.276 223.48 121.387 207.041 117.48C190.602 113.493 179.087 109.749 172.495 106.25C163.95 101.774 157.562 96.2402 153.33 89.6484C149.18 82.9753 147.104 75.529 147.104 67.3096C147.104 58.2764 149.668 49.8535 154.795 42.041C159.922 34.1471 167.409 28.1657 177.256 24.0967C187.103 20.0277 198.049 17.9932 210.093 17.9932C223.358 17.9932 235.036 20.1497 245.127 24.4629C255.299 28.6947 263.112 34.9609 268.564 43.2617C274.017 51.5625 276.947 60.9619 277.354 71.46L254.648 73.1689C253.428 61.8571 249.277 53.3122 242.197 47.5342C235.199 41.7562 224.823 38.8672 211.069 38.8672C196.746 38.8672 186.289 41.512 179.697 46.8018C173.187 52.0101 169.932 58.3171 169.932 65.7227C169.932 72.1517 172.251 77.4414 176.89 81.5918C181.447 85.7422 193.328 90.0146 212.534 94.4092C231.821 98.7223 245.046 102.507 252.207 105.762C262.624 110.563 270.314 116.667 275.278 124.072C280.243 131.396 282.725 139.86 282.725 149.463C282.725 158.984 279.998 167.977 274.546 176.44C269.093 184.823 261.24 191.374 250.986 196.094C240.814 200.732 229.339 203.052 216.562 203.052C200.368 203.052 186.777 200.692 175.791 195.972C164.886 191.252 156.3 184.172 150.034 174.731C143.849 165.21 140.594 154.468 140.269 142.505Z" fill="white" fill-opacity="0.5"/>
<path fill-rule="evenodd" clip-rule="evenodd" d="M382.989 87.4632L377.633 0L372.288 87.2666L306.627 29.4224L364.758 94.7926L296 100L365.107 105.234L319.948 157.585L372.296 112.851L377.633 200L382.965 112.922L448.714 170.844L390.356 105.219L459.265 100L390.445 94.7879L435.394 42.6806L382.989 87.4632Z" fill="white" fill-opacity="0.5"/>
<path d="M477.79 200V21.0449H501.471V178.882H589.606V200H477.79ZM735.358 21.0449H759.04V124.438C759.04 142.424 757.005 156.706 752.936 167.285C748.867 177.865 741.502 186.491 730.841 193.164C720.262 199.756 706.346 203.052 689.093 203.052C672.329 203.052 658.616 200.163 647.956 194.385C637.295 188.607 629.686 180.265 625.128 169.36C620.571 158.374 618.292 143.4 618.292 124.438V21.0449H641.974V124.316C641.974 139.86 643.398 151.335 646.247 158.74C649.176 166.064 654.14 171.72 661.139 175.708C668.219 179.696 676.846 181.689 687.018 181.689C704.433 181.689 716.844 177.743 724.25 169.849C731.655 161.955 735.358 146.777 735.358 124.316V21.0449ZM790.534 142.505L812.873 140.552C813.931 149.504 816.372 156.868 820.197 162.646C824.103 168.343 830.125 172.982 838.263 176.562C846.401 180.062 855.556 181.812 865.729 181.812C874.762 181.812 882.737 180.469 889.655 177.783C896.572 175.098 901.699 171.436 905.036 166.797C908.454 162.077 910.163 156.95 910.163 151.416C910.163 145.801 908.535 140.918 905.28 136.768C902.025 132.536 896.653 128.996 889.167 126.147C884.365 124.276 873.745 121.387 857.306 117.48C840.867 113.493 829.352 109.749 822.76 106.25C814.215 101.774 807.827 96.2402 803.595 89.6484C799.445 82.9753 797.37 75.529 797.37 67.3096C797.37 58.2764 799.933 49.8535 805.06 42.041C810.187 34.1471 817.674 28.1657 827.521 24.0967C837.368 20.0277 848.314 17.9932 860.358 17.9932C873.623 17.9932 885.301 20.1497 895.392 24.4629C905.565 28.6947 913.377 34.9609 918.83 43.2617C924.282 51.5625 927.212 60.9619 927.619 71.46L904.914 73.1689C903.693 61.8571 899.542 53.3122 892.462 47.5342C885.464 41.7562 875.088 38.8672 861.334 38.8672C847.012 38.8672 836.554 41.512 829.962 46.8018C823.452 52.0101 820.197 58.3171 820.197 65.7227C820.197 72.1517 822.516 77.4414 827.155 81.5918C831.712 85.7422 843.594 90.0146 862.799 94.4092C882.086 98.7223 895.311 102.507 902.472 105.762C912.889 110.563 920.579 116.667 925.543 124.072C930.508 131.396 932.99 139.86 932.99 149.463C932.99 158.984 930.264 167.977 924.811 176.44C919.359 184.823 911.505 191.374 901.251 196.094C891.079 200.732 879.604 203.052 866.828 203.052C850.633 203.052 837.042 200.692 826.056 195.972C815.151 191.252 806.566 184.172 800.299 174.731C794.114 165.21 790.859 154.468 790.534 142.505Z" fill="white" fill-opacity="0.5"/>
<path d="M1011.46 200V42.1631H952.503V21.0449H1094.35V42.1631H1035.14V200H1011.46ZM1119.13 200V21.0449H1198.47C1214.43 21.0449 1226.55 22.6725 1234.85 25.9277C1243.15 29.1016 1249.78 34.7575 1254.75 42.8955C1259.71 51.0335 1262.2 60.026 1262.2 69.873C1262.2 82.5684 1258.09 93.2699 1249.87 101.978C1241.65 110.685 1228.95 116.219 1211.78 118.579C1218.05 121.59 1222.81 124.561 1226.06 127.49C1232.98 133.838 1239.53 141.772 1245.72 151.294L1276.84 200H1247.06L1223.38 162.769C1216.46 152.026 1210.76 143.807 1206.29 138.11C1201.81 132.414 1197.78 128.426 1194.2 126.147C1190.7 123.869 1187.12 122.282 1183.46 121.387C1180.77 120.817 1176.38 120.532 1170.28 120.532H1142.81V200H1119.13ZM1142.81 100.024H1193.71C1204.54 100.024 1213 98.9258 1219.1 96.7285C1225.21 94.4499 1229.85 90.8691 1233.02 85.9863C1236.19 81.0221 1237.78 75.651 1237.78 69.873C1237.78 61.4095 1234.69 54.4515 1228.5 48.999C1222.4 43.5465 1212.72 40.8203 1199.45 40.8203H1142.81V100.024ZM1299.92 200V21.0449H1429.31V42.1631H1323.6V96.9727H1422.6V117.969H1323.6V178.882H1433.46V200H1299.92Z" fill="white" fill-opacity="0.5"/>
<path fill-rule="evenodd" clip-rule="evenodd" d="M1534.25 87.4632L1528.9 0L1523.55 87.2666L1457.89 29.4224L1516.02 94.7926L1447.27 100L1516.37 105.234L1471.21 157.585L1523.56 112.851L1528.9 200L1534.23 112.922L1599.98 170.844L1541.62 105.219L1610.53 100L1541.71 94.7879L1586.66 42.6806L1534.25 87.4632Z" fill="white" fill-opacity="0.5"/>
<path d="M1675.73 200V42.1631H1616.77V21.0449H1758.61V42.1631H1699.41V200H1675.73ZM1783.39 200V21.0449H1862.74C1878.69 21.0449 1890.82 22.6725 1899.12 25.9277C1907.42 29.1016 1914.05 34.7575 1919.01 42.8955C1923.98 51.0335 1926.46 60.026 1926.46 69.873C1926.46 82.5684 1922.35 93.2699 1914.13 101.978C1905.91 110.685 1893.22 116.219 1876.05 118.579C1882.31 121.59 1887.07 124.561 1890.33 127.49C1897.24 133.838 1903.8 141.772 1909.98 151.294L1941.11 200H1911.32L1887.64 162.769C1880.72 152.026 1875.03 143.807 1870.55 138.11C1866.08 132.414 1862.05 128.426 1858.47 126.147C1854.97 123.869 1851.39 122.282 1847.73 121.387C1845.04 120.817 1840.65 120.532 1834.54 120.532H1807.08V200H1783.39ZM1807.08 100.024H1857.98C1868.8 100.024 1877.27 98.9258 1883.37 96.7285C1889.47 94.4499 1894.11 90.8691 1897.29 85.9863C1900.46 81.0221 1902.05 75.651 1902.05 69.873C1902.05 61.4095 1898.95 54.4515 1892.77 48.999C1886.67 43.5465 1876.98 40.8203 1863.72 40.8203H1807.08V100.024ZM1964.18 200V21.0449H2093.57V42.1631H1987.86V96.9727H2086.86V117.969H1987.86V178.882H2097.73V200H1964.18Z" fill="white" fill-opacity="0.5"/>
</svg>
