<svg width="196" height="61" viewBox="0 0 196 61" fill="none" xmlns="http://www.w3.org/2000/svg">
<path d="M0.95813 59V2.20004H9.59813V51.08H37.2781V59H0.95813Z" fill="#8C7FCC" fill-opacity="0.5"/>
<path d="M90.5588 38.92C90.5588 52.04 81.9988 60.28 68.4788 60.28C54.8788 60.28 46.3988 52.04 46.3988 38.92V2.12004H55.0388V38.92C55.0388 47.56 59.9188 52.36 68.4788 52.36C76.9588 52.36 81.9188 47.56 81.9188 38.92V2.12004H90.5588V38.92Z" fill="#8C7FCC" fill-opacity="0.5"/>
<path d="M109.626 40.12C110.986 47.32 116.026 52.12 124.346 52.12C131.066 52.12 135.546 49.48 135.466 44.28C135.466 39.08 130.986 35.88 120.426 33.24C110.186 30.76 101.946 26.04 101.946 16.92C101.946 7.08004 109.946 0.920044 121.466 0.920044C133.786 0.920044 142.106 8.60004 143.306 19.4L134.506 19.88C133.546 13.16 128.586 8.76004 121.306 8.76004C115.226 8.76004 110.826 11.96 110.906 17C110.906 23.16 118.266 25 125.146 26.84C136.266 29.64 144.426 34.92 144.426 43.64C144.426 54.28 134.826 59.96 123.866 59.96C110.986 59.96 101.706 52.36 100.746 40.68L109.626 40.12Z" fill="#8C7FCC" fill-opacity="0.5"/>
<path d="M173.792 26.9272L172.265 2.00004L170.742 26.8709L152.029 10.3854L168.596 29.0159L149 30.5L168.696 31.9917L155.825 46.9119L170.744 34.1628L172.265 59L173.785 34.1828L192.524 50.6905L175.892 31.9874L195.531 30.5L175.917 29.0146L188.727 14.164L173.792 26.9272Z" fill="#8C7FCC"/>
</svg>
