<svg width="193" height="57" viewBox="0 0 193 57" fill="none" xmlns="http://www.w3.org/2000/svg">
<path d="M24.7919 24.9271L23.2653 0L21.7422 24.8709L3.02877 8.38538L19.5962 27.0159L0 28.5L19.6957 29.9916L6.82517 44.9119L21.7442 32.1627L23.2653 57L24.7851 32.1828L43.5237 48.6905L26.8917 29.9873L46.5306 28.5L26.9168 27.0146L39.7273 12.164L24.7919 24.9271Z" fill="#8C7FCC"/>
<path d="M92.2869 0.199997V8.12H74.8469V57H66.2069V8.12H48.7669V0.199997H92.2869Z" fill="#8C7FCC" fill-opacity="0.5"/>
<path d="M123.863 0.199997C135.703 0.199997 143.543 6.68 143.543 17.32C143.543 24.2 139.143 29.16 133.783 30.68C139.543 31.48 142.023 34.44 142.583 40.44L144.103 57H135.383L134.103 41.56C133.623 36.44 130.423 34.84 122.663 34.84H109.863V57H101.223V0.199997H123.863ZM109.863 26.92H123.303C130.503 26.92 134.583 23.64 134.583 17.56C134.583 11.56 130.583 8.12 123.303 8.12H109.863V26.92Z" fill="#8C7FCC" fill-opacity="0.5"/>
<path d="M154.504 0.199997H191.464V8.12H163.144V24.68H190.504V32.36H163.144V49.08H192.104V57H154.504V0.199997Z" fill="#8C7FCC" fill-opacity="0.5"/>
</svg>
